PathFileType	4	(X/Y/Z)	s02c0103.trc
DataRate	CameraRate	NumFrames	NumMarkers	Units	OrigDataRate	OrigDataStartFrame	OrigNumFrames
200	200	4	50	mm	200	500	2000
Frame#	Time	racr			lacr			c7			jug			rlel			rdr			llel			ldr			s2			lic			ric			lasi			rasi			rpsi			lpsi			rgt			lgt			rth1			rth2			rth3			rth4			rlfc			rmfc			rsh1			rsh2			rsh3			rsh4			rlmal			rmmal			rtoe			rmt5			rmt1			lth1			lth2			lth4			lth3			llfc			lmfc			lsh1			lsh2			lsh3			lsh4			llmal			lmmal			lcal			ltoe			lmt5			SBIKE			LBIKE			RBIKE			
		X1	Y1	Z1	X2	Y2	Z2	X3	Y3	Z3	X4	Y4	Z4	X5	Y5	Z5	X6	Y6	Z6	X7	Y7	Z7	X8	Y8	Z8	X9	Y9	Z9	X10	Y10	Z10	X11	Y11	Z11	X12	Y12	Z12	X13	Y13	Z13	X14	Y14	Z14	X15	Y15	Z15	X16	Y16	Z16	X17	Y17	Z17	X18	Y18	Z18	X19	Y19	Z19	X20	Y20	Z20	X21	Y21	Z21	X22	Y22	Z22	X23	Y23	Z23	X24	Y24	Z24	X25	Y25	Z25	X26	Y26	Z26	X27	Y27	Z27	X28	Y28	Z28	X29	Y29	Z29	X30	Y30	Z30	X31	Y31	Z31	X32	Y32	Z32	X33	Y33	Z33	X34	Y34	Z34	X35	Y35	Z35	X36	Y36	Z36	X37	Y37	Z37	X38	Y38	Z38	X39	Y39	Z39	X40	Y40	Z40	X41	Y41	Z41	X42	Y42	Z42	X43	Y43	Z43	X44	Y44	Z44	X45	Y45	Z45	X46	Y46	Z46	X47	Y47	Z47	X48	Y48	Z48	X49	Y49	Z49	X50	Y50	Z50	
500	2.5000	517.864980	1253.972822	-146.540260	482.746400	1273.621843	-484.531106	497.508066	1295.308951	-320.809849	449.388442	1164.520600	-319.638134	551.799359	988.057950	-80.510043	708.584373	836.827720	-135.576985	492.885511	996.260700	-564.254272	689.614741	863.159372	-524.313296	-23.412502	1126.538644	-280.292616	112.243884	1136.364577	-445.511847	118.998859	1093.458047	-148.399794	134.629872	1107.010227	-410.816204	166.506751	1071.490759	-187.720218	-0.498179	1147.325210	-237.204779	-6.409591	1173.763345	-316.862579	86.303640	1002.899064	-130.356833	53.929193	1067.893385	-479.394513	171.898607	944.002406	-138.358236	239.022171	889.047918	-153.568562	277.202020	813.157019	-140.509505	260.199492	906.656346	-178.914216	325.730639	683.991314	-181.960691	298.576338	667.459143	-286.698325	289.858914	580.791312	-156.645347	269.183576	494.385358	-170.299383	217.010731	427.779533	-158.008118	279.745615	490.023911	-207.899854	150.795756	322.183120	-154.549476	165.563660	333.427847	-237.745750	305.070945	149.919832	-188.861713	205.408217	197.330521	-134.492668	237.119726	191.428116	-240.368989	182.909424	1019.209684	-499.730790	267.818705	1001.228651	-499.956173	283.059649	1029.980260	-482.250508	333.303626	941.150378	-505.864874	421.714440	885.657755	-489.707263	431.345835	858.237197	-382.610859	405.289065	783.010989	-508.567804	387.825231	699.981835	-490.687619	331.012857	630.034222	-496.206772	403.555316	695.942232	-453.351353	265.519591	540.110146	-484.088317	277.996223	537.679882	-405.304490	198.635642	476.706398	-446.225437	485.589557	497.025370	-448.199551	383.520601	461.456632	-511.559720	-128.998820	868.994813	-315.084671	32.741236	81.853760	-515.254868	32.664503	82.064538	-115.675590	
501	2.5050	518.335232	1253.448002	-146.838309	482.597984	1273.853541	-484.739824	497.566534	1295.317678	-320.998623	449.620578	1164.493258	-320.141126	551.748853	987.796765	-80.274193	708.402836	836.717232	-135.382933	492.554656	996.227753	-563.910485	689.446345	863.289120	-524.188952	-23.372355	1126.798929	-280.456844	112.412255	1136.337372	-445.537927	118.645647	1093.805169	-148.237398	135.120861	1107.115729	-411.022032	166.118194	1071.774783	-187.514416	-0.607312	1147.682545	-237.284602	-6.234743	1173.969635	-316.933391	86.087035	1003.152887	-130.170661	54.446106	1067.791179	-479.328500	171.888945	944.732437	-138.513114	239.272780	890.000390	-153.580479	277.832874	814.362182	-140.450857	260.450150	907.792780	-178.842055	326.791707	685.074001	-182.158162	299.578769	668.818378	-286.938014	290.251502	582.085542	-156.955231	268.529398	496.092172	-170.642282	215.531433	429.907363	-158.295616	278.779766	491.671505	-208.527553	147.680160	325.147054	-154.506835	162.966151	336.319609	-237.985921	301.521349	152.250139	-188.833727	201.947168	200.114942	-134.557610	234.090390	194.090282	-240.079454	183.435419	1018.542532	-500.147478	267.929312	999.914646	-499.981801	283.365480	1028.586279	-482.341269	333.045327	939.429412	-505.860034	421.143498	883.418586	-489.648159	431.022804	855.903269	-382.744122	405.152044	780.597877	-508.542904	388.657428	697.311067	-490.882350	332.520860	626.769582	-496.045029	404.577555	693.429084	-453.550010	268.138187	536.275235	-483.977677	280.910030	534.054340	-404.723495	201.748876	472.324144	-446.067133	488.668078	494.731264	-448.266868	386.772660	458.491603	-511.612412	-128.977389	868.997591	-315.137072	32.752740	81.812915	-515.283361	32.692844	82.068197	-115.646274	
502	2.5100	518.780810	1252.936288	-147.047474	482.587748	1274.105281	-484.834103	497.675491	1295.366179	-321.105996	449.917010	1164.501155	-320.606686	551.716014	987.577962	-79.993676	708.238380	836.639386	-135.148237	492.238209	996.286324	-563.514702	689.292572	863.435810	-524.060643	-23.292032	1127.097059	-280.634572	112.594749	1136.303850	-445.574391	118.338895	1094.199892	-148.117575	135.551375	1107.137415	-411.124722	165.703832	1072.065385	-187.463975	-0.715420	1148.156668	-237.368231	-6.024363	1174.210672	-317.051208	85.888064	1003.499151	-129.966697	54.879857	1067.654900	-479.208265	171.941821	945.410050	-138.624865	239.608158	891.086430	-153.498777	278.401261	815.502440	-140.346169	260.804648	908.968960	-178.607671	327.878701	686.328744	-182.076305	300.631489	670.236591	-287.014890	290.689188	583.560535	-157.218836	267.862295	497.748495	-170.913424	214.124850	432.145132	-158.623334	277.907187	493.240404	-208.871181	144.850837	328.267795	-154.431996	160.039449	339.473843	-238.010596	298.035385	154.943852	-188.732012	198.561272	202.985711	-134.631473	230.700955	196.953085	-240.093977	183.679685	1017.735637	-500.169671	268.054310	998.557358	-500.029365	283.677726	1027.126116	-482.434316	332.760941	937.637502	-505.836614	420.512312	881.103127	-489.560608	430.739187	853.610127	-382.931802	404.958828	778.060464	-508.570630	389.559548	694.603075	-490.971434	334.068143	623.491795	-495.900118	405.699480	690.785467	-453.696882	270.676043	532.292946	-483.864646	283.620090	530.181228	-404.591257	204.431492	467.962556	-446.180835	491.772272	492.245378	-448.303681	389.992189	455.453673	-511.639980	-128.937578	868.993396	-315.142176	32.765094	81.846620	-515.259043	32.736650	82.154696	-115.707751	
503	2.5150	519.215447	1252.550095	-147.155031	482.690933	1274.469210	-484.787888	497.857847	1295.384686	-321.195346	450.217668	1164.505555	-320.941474	551.709697	987.379637	-79.653712	708.084560	836.499671	-134.911277	491.951753	996.400517	-563.172711	689.109392	863.591237	-523.903219	-23.122151	1127.421934	-280.866942	112.791098	1136.263768	-445.621235	118.023564	1094.633428	-148.068304	135.868474	1107.047825	-410.969844	165.359022	1072.515049	-187.412939	-0.708157	1148.582599	-237.532809	-5.725276	1174.414260	-317.277729	86.412057	1004.256693	-128.963366	55.337976	1067.504083	-479.061319	171.947696	946.240273	-138.363744	239.992843	892.130057	-153.248712	279.053620	816.788179	-140.083731	261.260324	910.249266	-178.142642	329.089236	687.582667	-181.948552	301.699261	671.759022	-287.095218	291.192882	584.888502	-157.383614	267.254831	499.451543	-171.089984	212.766519	434.448736	-158.677507	277.155305	494.831361	-209.079161	142.129635	331.470477	-154.217115	157.464516	342.530543	-238.003760	294.579986	157.546590	-188.738956	195.268201	205.927112	-134.625170	227.419342	199.778617	-240.050200	183.869392	1016.882548	-500.183719	268.156365	997.138557	-500.096731	283.990307	1025.607181	-482.561706	332.327182	935.720302	-505.566847	419.935629	878.709974	-489.423778	430.513542	851.237025	-383.224585	404.830885	775.486763	-508.497407	390.370967	691.820042	-491.014845	335.598507	620.253606	-495.777775	406.725601	688.178398	-453.852208	273.272362	528.438962	-483.582825	286.232716	526.047898	-404.804277	207.832577	463.488565	-445.942274	494.795878	489.750777	-448.562507	393.187603	452.327519	-511.677798	-128.906527	869.028678	-315.141687	32.755076	81.844068	-515.260398	32.736373	82.145033	-115.736238	
